<svg width="81" height="25" viewBox="0 0 81 25" fill="none" xmlns="http://www.w3.org/2000/svg">
<path d="M18.0864 24.7206H13.3377V11.3481H7.75168V24.7206H3.00303V11.3481H0V7.29772H3.00303V6.14534C3.00303 4.26059 3.60229 2.78917 4.80083 1.73109C5.99936 0.67301 7.66964 0.142854 9.81167 0.140625H15.1884V4.19036H9.88122C9.13482 4.19036 8.59373 4.35422 8.25799 4.68195C7.92223 5.00967 7.75347 5.52244 7.75168 6.22025V7.30241H18.0864V24.7206Z" fill="white"/>
<path d="M23.219 23.3232C21.938 22.2085 21.2979 20.7424 21.2988 18.925H25.9773C25.9773 19.5532 26.1926 20.0593 26.6233 20.4432C27.0541 20.8271 27.6186 21.0191 28.3168 21.0191H31.4603C32.8572 21.0191 33.5555 20.6352 33.5551 19.8674V19.2734C33.5551 19.0414 33.4387 18.8253 33.2059 18.6274C32.9732 18.4294 32.6595 18.2963 32.2635 18.2261L26.2227 17.1787C24.8026 16.9464 23.6796 16.4401 22.8538 15.6598C22.0281 14.8795 21.6147 13.9654 21.6138 12.9176V11.7665C21.6138 10.2777 22.2249 9.11399 23.4471 8.27528C24.6693 7.43657 26.3732 7.01766 28.5589 7.01856H31.2824C33.238 7.01856 34.8151 7.53623 36.0137 8.57157C37.2122 9.60691 37.8115 10.9747 37.8115 12.6748H33.135C33.135 12.1634 32.9663 11.7561 32.6287 11.4529C32.2912 11.1497 31.8431 10.9981 31.2844 10.9981H28.6312C27.1178 10.9981 26.3612 11.3472 26.3612 12.0454V12.6046C26.3595 12.7276 26.3853 12.8494 26.4366 12.9612C26.488 13.073 26.5637 13.1719 26.6581 13.2507C26.8554 13.4246 27.141 13.5476 27.5136 13.6172L33.8674 14.7696C35.1943 15.0028 36.2645 15.4973 37.0778 16.253C37.891 17.0088 38.2984 17.8644 38.2997 18.82V20.0767C38.2997 21.59 37.677 22.7888 36.4317 23.673C35.1863 24.5572 33.5279 24.9995 31.4563 24.9999H28.3128C26.1966 24.9999 24.4987 24.441 23.219 23.3232Z" fill="white"/>
<path d="M48.3228 3.42238L47.2755 4.36475C46.0649 5.45984 45.4596 6.78679 45.4596 8.3456V10.6497H40.7109V8.3456C40.7109 6.78501 40.9961 5.37646 41.5664 4.11996C42.1282 2.87388 42.9851 1.78346 44.0631 0.943044L45.2503 8.39705e-07L48.3228 3.42238ZM50.3821 21.2292C50.3821 19.8327 50.6383 18.6223 51.1506 17.5981C51.6629 16.5739 52.5358 15.6893 53.7691 14.9442L62.4284 9.77622C62.8431 9.54777 63.1872 9.20975 63.4229 8.79907C63.6559 8.42072 63.7827 7.98662 63.7901 7.54234V6.42474C63.7901 5.77419 63.5515 5.25028 63.0744 4.853C62.5974 4.45571 61.9747 4.25819 61.2064 4.26042H57.9961C57.0882 4.26042 56.3782 4.59193 55.8658 5.25496C55.3535 5.91799 55.0976 6.85434 55.098 8.06403H50.2825C50.2825 5.5265 50.9573 3.5479 52.307 2.1282C53.6567 0.70851 55.529 -0.000890927 57.9238 8.39705e-07H61.2064C62.6725 8.39705e-07 63.9655 0.267531 65.0856 0.802591C66.2057 1.33765 67.072 2.09432 67.6847 3.07258C68.3013 4.0513 68.6099 5.16868 68.6103 6.42474V7.54234C68.6103 8.79929 68.3484 9.87587 67.8244 10.7721C67.3005 11.6683 66.4801 12.4422 65.3632 13.0936L56.9467 17.9814C56.3875 18.3082 55.9626 18.6691 55.6719 19.0642C55.3812 19.4592 55.2358 19.9488 55.2358 20.5329H68.7461V24.7231H50.3821V21.2292ZM75.8356 5.51714L70.2175 8.3456V3.87919L76.988 0.27957H80.6545V24.7204H75.8356V5.51714Z" fill="url(#paint0_linear)"/>
<defs>
<linearGradient id="paint0_linear" x1="40.7109" y1="12.3606" x2="87.8116" y2="12.3606" gradientUnits="userSpaceOnUse">
<stop stop-color="#1F4077"/>
<stop offset="0.29" stop-color="#653384"/>
<stop offset="0.46" stop-color="#892D8B"/>
<stop offset="0.54" stop-color="#953A83"/>
<stop offset="0.7" stop-color="#B35E6E"/>
<stop offset="0.91" stop-color="#E4974D"/>
<stop offset="1" stop-color="#FBB23D"/>
</linearGradient>
</defs>
</svg>
