<svg width="96" height="19" viewBox="0 0 96 19" fill="none" xmlns="http://www.w3.org/2000/svg">
<path d="M1.98329 17.0135C0.661097 15.8581 0 14.3416 0 12.4641H4.83859C4.83859 13.115 5.06102 13.6385 5.50587 14.0347C5.95073 14.431 6.53463 14.6297 7.25757 14.631H10.507C11.9511 14.631 12.6732 14.2337 12.6732 13.4391V12.8249C12.6732 12.5857 12.553 12.3624 12.3124 12.1577C12.0719 11.9529 11.7462 11.8141 11.3374 11.7424L5.09066 10.6593C3.6226 10.42 2.4612 9.89628 1.60647 9.08803C0.751732 8.27979 0.325217 7.33506 0.326923 6.25385V5.06259C0.325644 3.52159 0.956885 2.31818 2.22065 1.45236C3.48441 0.586535 5.24741 0.153197 7.50964 0.152344H10.3246C12.3463 0.152344 13.9771 0.687833 15.217 1.75881C16.4568 2.82979 17.0785 4.2439 17.0819 6.00114H12.2401C12.2401 5.47226 12.0655 5.05129 11.7161 4.73823C11.3668 4.42517 10.9036 4.26842 10.3266 4.26799H7.58193C6.01791 4.26799 5.23568 4.62904 5.23525 5.35113V5.92692C5.23357 6.05399 5.26027 6.17983 5.3134 6.29526C5.36652 6.4107 5.44474 6.51283 5.54234 6.5942C5.74622 6.77505 6.04115 6.90151 6.42715 6.97359L12.9982 8.16548C14.3708 8.40604 15.478 8.91786 16.3199 9.70094C17.1619 10.484 17.5831 11.3686 17.5835 12.3547V13.6541C17.5835 15.2194 16.9397 16.4593 15.652 17.3737C14.3644 18.2882 12.6494 18.7454 10.507 18.7454H7.25757C5.06699 18.7454 3.3089 18.1681 1.98329 17.0135Z" fill="white"/>
<path d="M67.9876 1.93959C69.0944 3.13084 69.6489 4.68933 69.651 6.61504V18.4572H64.7401V6.61504C64.7401 5.94072 64.5838 5.40502 64.2712 5.00793C64.1283 4.81808 63.942 4.66514 63.728 4.56186C63.514 4.45858 63.2784 4.40796 63.0409 4.41423H61.4882C60.8138 4.41423 60.2242 4.66118 59.7192 5.15508C59.2142 5.64899 58.9011 6.30454 58.78 7.12174V18.4572H53.8685V6.65343C53.8685 5.97996 53.7119 5.4385 53.3989 5.02905C53.2598 4.83466 53.0754 4.67708 52.8617 4.56996C52.648 4.46283 52.4114 4.40938 52.1724 4.41423H50.7649C50.0663 4.41423 49.4523 4.72707 48.923 5.35277C48.3937 5.97847 48.0568 6.79588 47.9122 7.80502V18.4572H43.002V0.440604H47.5514V2.53522C47.9654 1.83239 48.5409 1.23828 49.2301 0.802075C49.916 0.36831 50.609 0.151641 51.3094 0.152067H53.3311C54.1703 0.143725 54.9934 0.382219 55.6982 0.837902C56.405 1.29598 56.9628 1.93362 57.3719 2.75082C57.9016 1.93362 58.5337 1.29598 59.2681 0.837902C59.9631 0.392285 60.7708 0.154347 61.5963 0.152067H63.5796C65.4102 0.152067 66.8795 0.747908 67.9876 1.93959Z" fill="white"/>
<path d="M31.0595 18.6683H24.8301L33.8157 0.578125H40.0451L31.0595 18.6683Z" fill="white"/>
<path d="M25.5545 0.578125L21.849 1.82312L21.0742 5.65471L24.0057 8.24067L27.7106 6.99631L28.4853 3.16472L25.5545 0.578125Z" fill="url(#paint0_linear)"/>
<path d="M73.194 15.9943C73.194 14.9425 73.386 14.0306 73.7698 13.2586C74.1537 12.4866 74.8122 11.8204 75.7454 11.26L82.2711 7.36761C82.5833 7.19485 82.8425 6.94027 83.0209 6.63124C83.196 6.34576 83.2912 6.01855 83.2967 5.68373V4.83924C83.2967 4.34832 83.1169 3.95379 82.7573 3.65566C82.3978 3.35752 81.9286 3.20824 81.3498 3.20782H78.9309C78.2484 3.20782 77.7136 3.45775 77.3263 3.95763C76.939 4.4575 76.7471 5.16317 76.7505 6.07463H73.1211C73.1211 4.16385 73.6297 2.67339 74.6469 1.60327C75.6642 0.533145 77.0738 -0.00127725 78.8758 2.29218e-06H81.3473C82.4519 2.29218e-06 83.4253 0.20153 84.2672 0.604587C85.1091 1.00764 85.7623 1.57747 86.2268 2.31406C86.6909 3.05065 86.9231 3.89237 86.9235 4.83924V5.68054C86.9235 6.62782 86.7263 7.4382 86.3317 8.11167C85.9372 8.78513 85.3188 9.36818 84.4764 9.8608L78.1382 13.5433C77.7166 13.7884 77.3973 14.0609 77.1785 14.3584C76.9597 14.6559 76.8503 15.025 76.8503 15.4633H87.0291V18.6193H73.194V15.9943ZM92.368 4.15852L88.1333 6.28896V2.91928L93.2361 0.209847H95.9974V18.6212H92.368V4.15852Z" fill="url(#paint1_linear)"/>
<defs>
<linearGradient id="paint0_linear" x1="21.0742" y1="4.40972" x2="28.4853" y2="4.40972" gradientUnits="userSpaceOnUse">
<stop stop-color="#EE4137"/>
<stop offset="1" stop-color="#EA088B"/>
</linearGradient>
<linearGradient id="paint1_linear" x1="26216.6" y1="2709.94" x2="34398.6" y2="2709.94" gradientUnits="userSpaceOnUse">
<stop stop-color="#EE4137"/>
<stop offset="1" stop-color="#EA088B"/>
</linearGradient>
</defs>
</svg>
